<?xml version="1.0" encoding="UTF-8"?>
<svg id="Layer_2" data-name="Layer 2" xmlns="http://www.w3.org/2000/svg" viewBox="0 0 103.98 31.44">
  <defs>
    <style>
      .cls-1 {
        fill: #3ac1ce;
      }

      .cls-1, .cls-2 {
        stroke-width: 0px;
      }

      .cls-2 {
        fill: #231f20;
      }
    </style>
  </defs>
  <g id="Layer_1-2" data-name="Layer 1">
    <g>
      <path class="cls-1" d="m15.82,0l11.33,14.18.48.73.48-.73L39.44,0h1.58l-12.6,15.81,12.48,15.63h-1.58l-11.21-14.06-.48-.73-.48.73-11.21,14.06h-1.58l12.48-15.63L14.24,0h1.58Z"/>
      <path class="cls-2" d="m7.64,24.83c-1.43,0-2.64-.24-3.63-.72-.99-.48-1.77-1.12-2.35-1.93-.58-.8-1-1.72-1.26-2.74-.26-1.02-.4-2.07-.4-3.16V7.74h1.76v8.56c0,.88.1,1.74.29,2.58.2.85.51,1.6.96,2.27.44.67,1.04,1.2,1.79,1.59.75.39,1.69.59,2.81.59s2.12-.2,2.87-.61c.76-.41,1.35-.94,1.79-1.61.43-.67.74-1.42.93-2.26.19-.84.28-1.69.28-2.55V7.74h1.79v8.56c0,1.13-.14,2.22-.41,3.25-.27,1.04-.71,1.95-1.32,2.73-.6.78-1.39,1.4-2.36,1.87-.97.46-2.15.69-3.55.69Z"/>
      <path class="cls-2" d="m46.19,24.83c-1.28,0-2.43-.24-3.47-.73-1.04-.49-1.93-1.14-2.68-1.95-.75-.81-1.33-1.73-1.74-2.76-.41-1.03-.61-2.08-.61-3.17s.21-2.21.64-3.24c.43-1.03,1.03-1.94,1.8-2.75.77-.8,1.68-1.44,2.72-1.91,1.04-.47,2.16-.71,3.37-.71,1.28,0,2.43.25,3.47.74,1.04.49,1.93,1.16,2.67,1.98.74.83,1.32,1.75,1.72,2.77.41,1.02.61,2.06.61,3.13,0,1.13-.21,2.21-.64,3.24-.43,1.03-1.02,1.95-1.79,2.75-.77.81-1.67,1.44-2.71,1.9-1.04.46-2.16.69-3.37.69Zm0-1.51c1.04,0,1.97-.2,2.8-.61.83-.41,1.53-.95,2.12-1.63.59-.68,1.03-1.44,1.34-2.28.31-.84.46-1.71.46-2.58,0-.92-.16-1.81-.49-2.67-.32-.85-.79-1.61-1.39-2.27-.6-.66-1.32-1.19-2.13-1.58-.82-.39-1.72-.59-2.71-.59s-1.95.2-2.77.61c-.83.41-1.53.95-2.12,1.63-.59.68-1.04,1.44-1.35,2.28-.32.85-.47,1.71-.47,2.58,0,.92.16,1.81.49,2.67.32.85.78,1.61,1.38,2.27.6.66,1.31,1.19,2.13,1.58.83.39,1.73.59,2.72.59Zm1.63-3.83h1.76l4.7,5.21h-1.76l-4.7-5.21Z"/>
      <path class="cls-2" d="m65.32,24.83c-1.28,0-2.43-.24-3.47-.72-1.04-.48-1.93-1.13-2.68-1.95-.75-.82-1.33-1.75-1.74-2.77-.41-1.03-.61-2.08-.61-3.17s.21-2.21.64-3.24c.43-1.03,1.03-1.94,1.8-2.75.77-.8,1.68-1.44,2.72-1.91,1.04-.47,2.16-.71,3.37-.71,1.28,0,2.43.25,3.47.74,1.04.49,1.93,1.16,2.67,1.98.74.83,1.32,1.75,1.72,2.77.41,1.02.61,2.06.61,3.13,0,1.13-.21,2.21-.64,3.24-.43,1.03-1.02,1.95-1.79,2.75-.77.81-1.67,1.44-2.71,1.9-1.04.46-2.16.69-3.37.69Zm-6.72-8.61c0,.92.16,1.81.49,2.67.32.85.78,1.61,1.38,2.27.6.66,1.31,1.19,2.13,1.58.83.39,1.73.59,2.72.59,1.04,0,1.97-.2,2.8-.61.83-.41,1.53-.95,2.12-1.63.59-.68,1.03-1.44,1.34-2.28.31-.84.46-1.71.46-2.58,0-.92-.16-1.81-.49-2.65-.32-.84-.79-1.6-1.39-2.27-.6-.67-1.32-1.2-2.13-1.58-.82-.38-1.72-.57-2.71-.57s-1.95.2-2.77.6c-.83.4-1.53.94-2.12,1.61-.59.68-1.04,1.44-1.35,2.28-.32.85-.47,1.71-.47,2.58Z"/>
      <path class="cls-2" d="m76.28,24.72V7.74h6.15c1.92,0,3.53.38,4.81,1.14,1.29.76,2.25,1.78,2.9,3.06.65,1.28.97,2.71.97,4.27,0,1.72-.35,3.22-1.06,4.5-.71,1.28-1.71,2.26-3.01,2.97-1.3.7-2.84,1.05-4.61,1.05h-6.15Zm13.05-8.51c0-1.36-.27-2.56-.8-3.61-.54-1.05-1.32-1.88-2.34-2.48-1.02-.6-2.27-.9-3.75-.9h-4.37v14.01h4.37c1.5,0,2.76-.31,3.78-.93,1.02-.62,1.8-1.46,2.32-2.52.53-1.06.79-2.25.79-3.58Z"/>
      <rect class="cls-2" x="93.77" y="23.23" width="10.21" height="1.48"/>
      <rect class="cls-2" x="93.77" y="7.74" width="9.98" height="1.48"/>
      <rect class="cls-2" x="93.77" y="15.22" width="9.98" height="1.48"/>
    </g>
  </g>
</svg>